<?xml version="1.0" encoding="UTF-8"?>
<svg width="103px" height="30px" viewBox="0 0 103 30" version="1.1" xmlns="http://www.w3.org/2000/svg" xmlns:xlink="http://www.w3.org/1999/xlink">
    <!-- Generator: Sketch 49 (51002) - http://www.bohemiancoding.com/sketch -->
    <title>logo/白</title>
    <desc>Created with Sketch.</desc>
    <defs></defs>
    <g id="Symbols" stroke="none" stroke-width="1" fill="none" fill-rule="evenodd">
        <g id="web-head" transform="translate(-40.000000, -17.000000)" fill="#FFFFFF">
            <g id="Group-84">
                <g id="logo/白" transform="translate(40.000000, 17.000000)">
                    <g id="Group">
                        <g id="Logkit" transform="translate(34.160804, 4.137931)">
                            <path d="M0,18.3724138 L0,0 L4.1241407,0 L4.1241407,15.8082172 L5.37539887,15.8082172 L5.37539887,18.3724138 L0,18.3724138 Z M6.45949749,11.4703448 L6.45949749,11.4455172 C6.45949749,8.0937931 8.86938693,4.1462069 13.8879196,4.1462069 C18.9064523,4.1462069 21.3163417,8.0937931 21.3163417,11.4703448 C21.3163417,14.8468966 18.9064523,18.7944828 13.8879196,18.7944828 C8.86938693,18.7944828 6.45949749,14.8468966 6.45949749,11.4703448 Z M10.5836382,11.4703448 L10.5836382,11.4951724 C10.5836382,13.4813793 12.0991357,14.9462069 13.8879196,14.9462069 C15.6767035,14.9462069 17.192201,13.4813793 17.192201,11.4703448 C17.192201,9.45931034 15.6767035,7.99448276 13.8879196,7.99448276 C12.0991357,7.99448276 10.5836382,9.45931034 10.5836382,11.4703448 Z M37.9371256,4.59310345 L37.9371256,16.7089655 C37.9371256,18.7696552 37.7880603,20.0855172 37.1172663,21.2524138 C36.0489648,22.9903448 33.5396985,24.5048276 30.1360402,24.5048276 C25.3411055,24.5048276 23.5274774,21.6248276 23.254191,19.6634483 L28.0242814,19.6634483 C28.3224121,20.3337931 28.8689849,20.6813793 29.3410251,20.8551724 C29.8379095,21.0289655 30.3099497,21.0289655 30.4341709,21.0289655 C31.9993568,21.0289655 33.7881407,20.0606897 33.7881407,17.6772414 L33.7881407,16.857931 C33.3161005,17.6524138 32.1235779,18.8193103 29.9621307,18.8193103 C26.2106533,18.8193103 23.0057487,15.9889655 23.0057487,11.5696552 C23.0057487,6.85241379 26.3845628,4.1462069 29.9621307,4.1462069 C31.5024724,4.1462069 33.0179698,4.69241379 33.8129849,5.88413793 L33.8129849,4.59310345 L37.9371256,4.59310345 Z M27.1298894,11.4206897 L27.1298894,11.4455172 C27.1298894,13.6303448 28.7199196,14.9710345 30.4341709,14.9710345 C31.4527839,14.9710345 32.247799,14.6234483 32.8440603,14.0275862 C33.4154774,13.4317241 33.7632965,12.6124138 33.8129849,11.6441379 C33.8129849,10.6262069 33.5148543,9.70758621 32.9434372,9.06206897 C32.3968643,8.39172414 31.5521608,7.99448276 30.4590151,7.99448276 C28.6950754,7.99448276 27.1298894,9.40965517 27.1298894,11.4206897 Z M41.017809,18.3724138 L41.017809,0 L45.1419497,0 L45.1419497,9.58344828 L49.0176482,4.59310345 L53.9119598,4.59310345 L48.7195176,10.6510345 L53.7628945,18.3724138 L49.0921809,18.3724138 L45.1419497,11.7434483 L45.1419497,18.3724138 L41.017809,18.3724138 Z M55.5516784,3.12827586 L55.5516784,0 L59.6758191,0 L59.6758191,3.12827586 L55.5516784,3.12827586 Z M55.5516784,18.3724138 L55.5516784,4.59310345 L59.6758191,4.59310345 L59.6758191,18.3724138 L55.5516784,18.3724138 Z M62.2696835,18.3724138 L62.2696835,7.72137931 L61.3710956,7.72137931 L61.3710956,4.59310345 L62.2696835,4.59310345 L62.2696835,2.13162821e-14 L66.3938242,2.13162821e-14 L66.3938242,4.59310345 L68.3813619,4.59310345 L68.3813619,7.72137931 L66.3938242,7.72137931 L66.3938242,15.8132046 L67.5749726,15.8132046 L67.5749726,18.3724138 L62.2696835,18.3724138 Z" id="logkit"></path>
                        </g>
                        <g id="Rectangle-23-+-Combined-Shape-Mask">
                            <path d="M13.4572864,0 L26.4563713,7.5 L26.4563713,22.5 L13.4572864,30 L0.458201602,22.5 L0.458201602,7.5 L13.4572864,0 Z M4.59435967,13.7650269 L5.88746312,16.0047477 L18.4383036,8.75851658 L17.1452002,6.51879571 L4.59435967,13.7650269 Z M6.9235054,17.7958313 L8.21660885,20.0355522 L17.1814949,14.8596728 L15.8883915,12.6199519 L6.9235054,17.7958313 Z M9.25265113,21.8277621 L10.5457546,24.067483 L21.7518622,17.5976337 L20.4587587,15.3579128 L9.25265113,21.8277621 Z" id="Combined-Shape"></path>
                        </g>
                    </g>
                </g>
            </g>
        </g>
    </g>
</svg>